<svg xmlns="http://www.w3.org/2000/svg" width="960" height="600" viewBox="0 0 960 600"><defs><linearGradient id="c" x2="1" y2="1"><stop stop-color="#18273d"/><stop offset="1" stop-color="#39556c"/></linearGradient></defs><rect width="960" height="600" rx="40" fill="url(#c)"/><g fill="#52627b"><rect x="75" y="135" width="810" height="60" rx="8"/><rect x="75" y="205" width="150" height="60" rx="7"/><rect x="735" y="205" width="150" height="60" rx="7"/><rect x="75" y="275" width="150" height="60" rx="7"/><rect x="435" y="275" width="150" height="60" rx="7"/><rect x="735" y="275" width="150" height="60" rx="7"/><rect x="75" y="345" width="150" height="60" rx="7"/><rect x="735" y="345" width="150" height="60" rx="7"/><rect x="75" y="415" width="810" height="60" rx="7"/></g><g fill="#a97f54"><rect x="235" y="207" width="94" height="57" rx="6"/><rect x="337" y="207" width="94" height="57" rx="6"/><rect x="591" y="278" width="95" height="55" rx="6"/></g><g stroke="#c8dae3" stroke-width="5"><circle cx="653" cy="236" r="32" fill="#95a5b6"/><circle cx="391" cy="375" r="32" fill="#9facb7"/></g><g fill="#75f6cc" stroke="#f3fff7" stroke-width="2"><path d="M289 314l24-30 22 30-22 30z"/><path d="M569 374l24-30 22 30-22 30z"/><path d="M693 372l24-30 22 30-22 30z"/></g><circle cx="281" cy="373" r="30" fill="#f8d58c"/><rect x="254" y="392" width="54" height="34" rx="12" fill="#50c8ad"/><g fill="#203b51"><circle cx="271" cy="370" r="4"/><circle cx="291" cy="370" r="4"/></g><rect x="795" y="355" width="55" height="61" rx="7" fill="#64ddac"/><rect x="808" y="369" width="29" height="47" rx="4" fill="#1c4652"/><text x="480" y="95" fill="#f5f6ec" text-anchor="middle" font-family="Calibri, sans-serif" font-size="53" font-weight="800">ĐÀO NGỌC</text><text x="480" y="552" fill="#c9f7ec" text-anchor="middle" font-family="Calibri, sans-serif" font-size="22">ĐÀO ĐẤT · TRÁNH ĐÁ · MỞ CỬA HANG</text></svg>