<svg xmlns="http://www.w3.org/2000/svg" width="228" height="164" viewBox="0 0 228 164" role="img" aria-labelledby="title desc">
<title id="title">Những viên bi mở lối</title><desc id="desc">Minh họa nguyên bản NewPlayground: bảy viên bi mang bảy ký hiệu khác nhau trên một bàn nhỏ.</desc>
<defs><linearGradient id="plate" x2="0" y2="1"><stop stop-color="#e8eddf"/><stop offset="1" stop-color="#c9dbca"/></linearGradient><radialGradient id="gloss" cx=".3" cy=".2"><stop stop-color="#fff" stop-opacity=".7"/><stop offset=".6" stop-color="#fff" stop-opacity="0"/><stop offset="1" stop-color="#102d36" stop-opacity=".24"/></radialGradient></defs>
<g transform="translate(14 9) rotate(-8 100 75)"><rect x="4" y="18" width="192" height="122" rx="20" fill="#325b5d"/><rect y="9" width="196" height="124" rx="20" fill="url(#plate)" stroke="#71958a" stroke-width="2"/><path d="M22 49h153M22 91h153M53 26v89M96 26v89M139 26v89" fill="none" stroke="#95b3a2" stroke-dasharray="2 4"/>
<g stroke="#365458" stroke-width="1"><circle cx="32" cy="33" r="18" fill="#e87870"/><circle cx="75" cy="33" r="18" fill="#85c686"/><circle cx="118" cy="33" r="18" fill="#8db9f0"/><circle cx="161" cy="33" r="18" fill="#ebcb74"/><circle cx="75" cy="76" r="18" fill="#b6a3df"/><circle cx="118" cy="76" r="18" fill="#e6a3c4"/><circle cx="161" cy="76" r="18" fill="#7ec6c9"/></g>
<g fill="url(#gloss)"><circle cx="32" cy="33" r="18"/><circle cx="75" cy="33" r="18"/><circle cx="118" cy="33" r="18"/><circle cx="161" cy="33" r="18"/><circle cx="75" cy="76" r="18"/><circle cx="118" cy="76" r="18"/><circle cx="161" cy="76" r="18"/></g>
<g fill="#143a42"><circle cx="32" cy="33" r="5"/><path d="m75 26 7 12H68Z"/><rect x="113" y="28" width="10" height="10" rx="1"/><path d="m161 25 8 8-8 8-8-8ZM73 68h4v6h6v4h-6v6h-4v-6h-6v-4h6Zm45 0 2.5 5 5.5 1-4 4 1 5.5-5-2.5-5 2.5 1-5.5-4-4 5.5-1ZM155 70h4v12h-4Zm8 0h4v12h-4Z"/></g><path d="M31 73v36h90" stroke="#668f7b" stroke-width="3" stroke-dasharray="2 7" stroke-linecap="round" fill="none"/>
</g></svg>
