<svg xmlns="http://www.w3.org/2000/svg" viewBox="0 0 640 400" role="img" aria-labelledby="title desc">
  <title id="title">Mầm Chớp</title>
  <desc id="desc">Một mầm cây nhỏ bắn hạt sáng qua vườn đá lúc chiều tà.</desc>
  <defs><linearGradient id="night" x1="0" y1="0" x2="0" y2="1"><stop stop-color="#162c43"/><stop offset=".65" stop-color="#38636a"/><stop offset="1" stop-color="#587a5f"/></linearGradient><radialGradient id="seed"><stop stop-color="#fff7b4"/><stop offset="1" stop-color="#ffc45f"/></radialGradient></defs>
  <rect width="640" height="400" fill="url(#night)"/>
  <circle cx="512" cy="74" r="34" fill="#ffd68b" opacity=".9"/>
  <path d="M0 226q78-63 159 2t166-9 153 11 162-17v187H0z" fill="#284952"/>
  <path d="M0 282q96-38 186 8t182-7 272 13v104H0z" fill="#284c42"/>
  <path d="M0 340h640v60H0z" fill="#473d43"/>
  <g fill="#a2ca82"><path d="M0 334h640v9H0z"/><path d="M160 248q-35-47-74-10 34 3 59 27m6-21q29-46 67-16-32 7-55 34"/><path d="M465 264q-24-35-56-9 25 1 46 20m5-17q23-32 52-10-25 6-42 25"/></g>
  <g transform="translate(221 283)" stroke="#16343b" stroke-width="4" stroke-linecap="round" stroke-linejoin="round">
    <path d="M0 37Q5 4 18-18" fill="none" stroke="#b5d985" stroke-width="8"/>
    <ellipse cx="5" cy="-8" rx="17" ry="10" transform="rotate(-28 5 -8)" fill="#5fbb83"/>
    <ellipse cx="26" cy="-24" rx="15" ry="10" transform="rotate(26 26 -24)" fill="#83d397"/>
    <circle cx="23" cy="7" r="12" fill="#e6a76e"/><circle cx="18" cy="4" r="2" fill="#1b323a" stroke="none"/><circle cx="28" cy="4" r="2" fill="#1b323a" stroke="none"/>
    <path d="M18 14q5 5 10 0" fill="none" stroke="#1b323a" stroke-width="2"/>
    <path d="M9 37h29" stroke="#ddbd7d" stroke-width="5"/>
  </g>
  <circle cx="318" cy="259" r="10" fill="url(#seed)"/><path d="M258 269h38" stroke="#ffe194" stroke-width="3" stroke-dasharray="6 8"/>
  <g fill="#c5e89b"><circle cx="73" cy="108" r="2"/><circle cx="147" cy="71" r="2.5"/><circle cx="349" cy="88" r="2"/><circle cx="420" cy="136" r="2.4"/></g>
  <text x="28" y="42" fill="#fff1c7" font-family="Calibri,Inter,sans-serif" font-size="30" font-weight="700">Mầm Chớp</text>
  <text x="611" y="375" fill="#d8e6c1" font-family="Calibri,Inter,sans-serif" font-size="12" font-weight="700" text-anchor="end" letter-spacing="2">VƯỜN HOANG</text>
</svg>
