<svg xmlns="http://www.w3.org/2000/svg" width="800" height="500" viewBox="0 0 800 500" role="img" aria-labelledby="title desc">
  <title id="title">Dò Mìn — NewPlayground</title><desc id="desc">Bàn ô xanh với cờ đỏ và các con số, minh họa nguyên bản.</desc>
  <defs><pattern id="tiles" width="74" height="74" patternUnits="userSpaceOnUse"><rect x="3" y="3" width="68" height="68" rx="9" fill="#d4e4b6" stroke="#658176" stroke-width="2"/><path d="M14 10h43" stroke="#eef5de" stroke-width="3" stroke-linecap="round"/></pattern></defs>
  <rect width="800" height="500" fill="#183d32"/><circle cx="754" cy="19" r="184" fill="#255041"/>
  <circle cx="12" cy="479" r="145" fill="#214837"/>
  <g transform="translate(290 39) rotate(8 220 220)"><rect x="-9" y="-9" width="462" height="462" rx="17" fill="#102c24"/><rect width="444" height="444" rx="10" fill="url(#tiles)"/>
    <g fill="#f8f7ef" stroke="#ccd6c6" stroke-width="2"><rect x="3" y="3" width="68" height="68" rx="6"/><rect x="77" y="3" width="68" height="68" rx="6"/><rect x="151" y="3" width="68" height="68" rx="6"/><rect x="3" y="77" width="68" height="68" rx="6"/><rect x="77" y="77" width="68" height="68" rx="6"/><rect x="3" y="151" width="68" height="68" rx="6"/><rect x="77" y="151" width="68" height="68" rx="6"/></g>
    <g font-family="Calibri, Inter, sans-serif" font-size="42" font-weight="900" text-anchor="middle"><text x="185" y="52" fill="#174fa4">1</text><text x="111" y="127" fill="#266131">2</text><text x="37" y="202" fill="#174fa4">1</text><text x="111" y="202" fill="#b52a2b">3</text></g>
    <g transform="translate(167 87)" fill="none" stroke="#8c291f" stroke-width="6" stroke-linecap="round" stroke-linejoin="round"><path d="M0 45V0m0 2h30l-8 12 8 10H0m-8 21h16"/></g>
  </g>
  <rect x="38" y="146" width="225" height="164" rx="18" fill="#c8ff4a"/>
  <text x="60" y="187" font-family="Calibri, Inter, sans-serif" font-size="14" font-weight="700" letter-spacing="2" fill="#294831">NEWPLAYGROUND</text>
  <text x="58" y="242" font-family="Calibri, Inter, sans-serif" font-size="45" font-weight="900" fill="#183d32">Dò Mìn</text>
  <text x="61" y="279" font-family="Calibri, Inter, sans-serif" font-size="18" fill="#294831">Chậm một nhịp. Nghĩ một ô.</text>
</svg>
