<svg xmlns="http://www.w3.org/2000/svg" width="640" height="400" viewBox="0 0 640 400" role="img" aria-labelledby="title desc">
  <title id="title">Tháp Ba Cọc</title>
  <desc id="desc">Ba cọc gỗ và chồng đĩa màu đang được chuyển sang cọc bên phải.</desc>
  <defs>
    <linearGradient id="paper" x2="0" y2="1"><stop stop-color="#fbf8ef"/><stop offset="1" stop-color="#e7e2d2"/></linearGradient>
    <linearGradient id="wood" x2="1"><stop stop-color="#78533c"/><stop offset=".45" stop-color="#b58a63"/><stop offset="1" stop-color="#78533c"/></linearGradient>
  </defs>
  <rect width="640" height="400" rx="36" fill="url(#paper)"/>
  <circle cx="510" cy="82" r="48" fill="#dbe8da"/>
  <path d="M72 318h496" stroke="#87644d" stroke-width="18" stroke-linecap="round"/>
  <g fill="url(#wood)"><rect x="157" y="126" width="16" height="194" rx="8"/><rect x="312" y="126" width="16" height="194" rx="8"/><rect x="467" y="126" width="16" height="194" rx="8"/></g>
  <g stroke="#fff8" stroke-width="4">
    <path d="M112 291h106l-9 25h-88z" fill="#cf7554"/>
    <path d="M126 263h78l-7 24h-64z" fill="#dfad4f"/>
    <path d="M138 237h54l-6 22h-42z" fill="#729b68"/>
    <path d="M148 213h34l-4 19h-26z" fill="#6f9c9b"/>
  </g>
  <g fill="none" stroke="#b1cbb4" stroke-width="8" stroke-linecap="round"><path d="M200 156c63-64 140-68 217-8"/><path d="m393 136 26 12-4-28"/></g>
  <g fill="#fffaf1" font-family="Calibri,Inter,sans-serif" font-weight="700"><text x="320" y="365" fill="#20483d" font-size="31" text-anchor="middle">THÁP BA CỌC</text><text x="320" y="390" fill="#708078" font-size="15" text-anchor="middle">Từng nước đi, cả chặng đường</text></g>
</svg>
